# xmcd
# 
# Track frame offsets:
#     150
#     10617
#     28727
#     44920
#     58692
#     76662
#     88940
#     112272
#     125637
#     139997
#     153660
#     163547
#     178515
#     193190
# 
# Disc length: 2753
# 
# Revision: 1
# Processed by: cddbd v1.5.2PL0 Copyright (c) Steve Scherf et al.
# Submitted via: fre:ac v1.0.31
# 
DISCID=c60abf0e
DTITLE=Roots of Rhythm - Sunday Afternoon
DYEAR=1999
DGENRE=R&B
TTITLE0=Louis Armstrong - What a Wonderful World
TTITLE1=Aretha Franklin - Day Dreaming
TTITLE2=Ella Fitzgerald and Duke Ellington - Sweet Georgia Brown
TTITLE3=Count Basie and His Orchestra - Pennies From Heaven
TTITLE4=Fats Waller - Ain't Misbehavin'
TTITLE5=Della Reese - I'm Just A Lucky So and So
TTITLE6=Edwin Hawkins Singers - Oh Happy Day
TTITLE7=Benny Carter and His Orchestra - Sunday Afternoon
TTITLE8=Duke Ellington and His Cotton Club Orchestra - Mood Indigo
TTITLE9=Coleman Hawkins and His Orchestra - Body and Soul
TTITLE10=Mahalia Jackson - It Dont Cost Very Much
TTITLE11=Sarah Vaughn - Black Coffee
TTITLE12=Nina Simone - Sunday In Savannah
TTITLE13=The Harptones - A Sunday Kind Of Love
EXTD=
EXTT0=
EXTT1=
EXTT2=
EXTT3=
EXTT4=
EXTT5=
EXTT6=
EXTT7=
EXTT8=
EXTT9=
EXTT10=
EXTT11=
EXTT12=
EXTT13=
PLAYORDER=
